<svg xmlns="http://www.w3.org/2000/svg" xmlns:xlink="http://www.w3.org/1999/xlink" width="1080" zoomAndPan="magnify" viewBox="0 0 810 809.999993" height="1080" preserveAspectRatio="xMidYMid meet" version="1.0"><path fill="rgb(97.24884%, 97.24884%, 97.24884%)" d="M 742.304688 243.304688 L 762.382812 223.230469 C 773.03125 212.585938 778.898438 198.429688 778.898438 183.367188 C 778.898438 168.308594 773.03125 154.152344 762.382812 143.503906 L 667.242188 48.382812 C 656.589844 37.734375 642.433594 31.871094 627.375 31.871094 C 612.3125 31.871094 598.152344 37.730469 587.507812 48.382812 L 567.433594 68.453125 C 427.277344 0.828125 253.585938 24.964844 137.484375 141.054688 C 21.375 257.152344 -2.765625 430.820312 64.875 570.964844 L 44.796875 591.039062 C 34.148438 601.683594 28.28125 615.839844 28.28125 630.902344 C 28.28125 645.960938 34.148438 660.117188 44.796875 670.765625 L 139.933594 765.890625 C 150.582031 776.539062 164.742188 782.40625 179.800781 782.40625 C 194.859375 782.40625 209.023438 776.546875 219.667969 765.890625 L 239.738281 745.820312 C 291.332031 770.714844 347.441406 783.257812 403.582031 783.257812 C 499.953125 783.257812 596.324219 746.578125 669.691406 673.226562 C 785.804688 557.125 809.941406 383.449219 742.304688 243.304688 Z M 595.953125 56.832031 C 604.347656 48.4375 615.503906 43.816406 627.375 43.816406 C 639.242188 43.816406 650.394531 48.433594 658.792969 56.832031 L 753.929688 151.957031 C 762.320312 160.347656 766.945312 171.503906 766.945312 183.375 C 766.945312 195.242188 762.320312 206.394531 753.929688 214.789062 L 736.714844 232.003906 C 733.796875 226.457031 730.734375 220.972656 727.527344 215.542969 L 736.855469 206.214844 C 749.085938 193.988281 749.085938 174.085938 736.855469 161.859375 L 648.890625 73.902344 C 636.664062 61.675781 616.757812 61.675781 604.53125 73.902344 L 595.199219 83.230469 C 589.777344 80.023438 584.285156 76.953125 578.738281 74.042969 Z M 669.695312 141.054688 C 649.875 121.238281 628.328125 104.191406 605.601562 89.722656 L 612.976562 82.347656 C 620.546875 74.777344 632.871094 74.765625 640.445312 82.347656 L 728.410156 170.308594 C 735.984375 177.882812 735.984375 190.199219 728.410156 197.773438 L 721.039062 205.144531 C 706.570312 182.417969 689.523438 160.875 669.695312 141.054688 Z M 211.226562 757.4375 C 202.832031 765.832031 191.675781 770.453125 179.804688 770.453125 C 167.9375 770.453125 156.785156 765.835938 148.382812 757.4375 L 53.25 662.3125 C 44.855469 653.921875 40.234375 642.765625 40.234375 630.894531 C 40.234375 619.027344 44.855469 607.875 53.25 599.476562 L 70.464844 582.265625 C 73.382812 587.8125 76.445312 593.296875 79.652344 598.726562 L 70.324219 608.054688 C 58.09375 620.28125 58.09375 640.183594 70.324219 652.410156 L 158.289062 740.375 C 164.398438 746.484375 172.433594 749.546875 180.46875 749.546875 C 188.503906 749.546875 196.539062 746.484375 202.648438 740.375 L 211.980469 731.042969 C 217.402344 734.25 222.894531 737.320312 228.441406 740.230469 Z M 137.484375 673.21875 C 157.304688 693.039062 178.851562 710.085938 201.578125 724.550781 L 194.203125 731.929688 C 186.640625 739.503906 174.316406 739.515625 166.734375 731.929688 L 78.769531 643.964844 C 71.195312 636.390625 71.195312 624.074219 78.769531 616.5 L 86.140625 609.128906 C 100.609375 631.859375 117.65625 653.394531 137.484375 673.21875 Z M 661.25 664.773438 C 519.167969 806.824219 288 806.824219 145.921875 664.773438 C 3.847656 522.714844 3.847656 291.566406 145.921875 149.5 C 216.96875 78.46875 310.273438 42.960938 403.59375 42.960938 C 496.910156 42.960938 590.21875 78.46875 661.253906 149.5 C 803.324219 291.5625 803.324219 522.707031 661.25 664.773438 Z M 661.25 664.773438 " fill-opacity="1" fill-rule="nonzero"/><path fill="rgb(97.24884%, 97.24884%, 97.24884%)" d="M 647.707031 163.046875 C 582.5 97.847656 495.804688 61.9375 403.59375 61.9375 C 311.378906 61.9375 224.679688 97.847656 159.476562 163.046875 C 24.871094 297.636719 24.871094 516.640625 159.476562 651.226562 C 224.683594 716.429688 311.378906 752.335938 403.59375 752.335938 C 495.804688 752.335938 582.507812 716.429688 647.707031 651.226562 C 782.308594 516.640625 782.308594 297.636719 647.707031 163.046875 Z M 639.261719 642.78125 C 576.3125 705.726562 492.617188 740.390625 403.59375 740.390625 C 314.570312 740.390625 230.875 705.726562 167.925781 642.78125 C 37.976562 512.847656 37.976562 301.429688 167.925781 171.492188 C 230.867188 108.550781 314.570312 73.882812 403.59375 73.882812 C 492.617188 73.882812 576.3125 108.550781 639.261719 171.492188 C 769.210938 301.429688 769.210938 512.847656 639.261719 642.78125 Z M 639.261719 642.78125 " fill-opacity="1" fill-rule="nonzero"/><path fill="rgb(97.24884%, 97.24884%, 97.24884%)" d="M 614.167969 196.585938 C 498.050781 80.484375 309.132812 80.484375 193.019531 196.585938 C 76.90625 312.6875 76.90625 501.585938 193.019531 617.691406 C 251.074219 675.742188 327.335938 704.761719 403.59375 704.761719 C 479.851562 704.761719 556.109375 675.742188 614.167969 617.691406 C 730.273438 501.585938 730.273438 312.679688 614.167969 196.585938 Z M 605.714844 609.242188 C 494.257812 720.6875 312.914062 720.6875 201.460938 609.242188 C 90.003906 497.800781 90.003906 316.472656 201.460938 205.03125 C 257.1875 149.308594 330.386719 121.453125 403.585938 121.453125 C 476.785156 121.453125 549.988281 149.308594 605.714844 205.03125 C 717.167969 316.472656 717.167969 497.800781 605.714844 609.242188 Z M 605.714844 609.242188 " fill-opacity="1" fill-rule="nonzero"/><path fill="rgb(97.24884%, 97.24884%, 97.24884%)" d="M 526.558594 264.738281 C 541.199219 262.113281 553.042969 254.121094 559.910156 242.238281 C 566.765625 230.355469 567.765625 216.105469 562.714844 202.117188 C 557.792969 188.484375 547.667969 176.695312 534.203125 168.917969 C 506.074219 152.671875 471.824219 159.136719 457.851562 183.3125 C 450.992188 195.195312 449.996094 209.445312 455.042969 223.441406 C 459.964844 237.070312 470.097656 248.859375 483.5625 256.636719 C 493.824219 262.5625 505.132812 265.644531 516.246094 265.644531 C 519.707031 265.644531 523.164062 265.347656 526.558594 264.738281 Z M 489.527344 246.292969 C 478.496094 239.929688 470.238281 230.375 466.273438 219.390625 C 462.4375 208.765625 463.117188 198.078125 468.191406 189.292969 C 474.742188 177.949219 487.429688 171.875 501.4375 171.875 C 510.246094 171.875 519.570312 174.269531 528.226562 179.269531 C 539.253906 185.632812 547.511719 195.1875 551.480469 206.171875 C 555.316406 216.792969 554.632812 227.484375 549.5625 236.261719 C 544.492188 245.050781 535.570312 250.980469 524.457031 252.976562 C 512.96875 255.035156 500.554688 252.664062 489.527344 246.292969 Z M 489.527344 246.292969 " fill-opacity="1" fill-rule="nonzero"/><path fill="rgb(97.24884%, 97.24884%, 97.24884%)" d="M 507.191406 226.6875 C 505.632812 226.808594 491.457031 226.707031 489.445312 213.667969 C 488.015625 204.386719 492.019531 199.621094 492.304688 199.296875 C 494.535156 196.925781 494.457031 193.199219 492.109375 190.921875 C 489.742188 188.628906 485.957031 188.683594 483.660156 191.046875 C 482.796875 191.9375 475.28125 200.199219 477.636719 215.488281 C 480.472656 233.910156 497.328125 238.648438 506.648438 238.648438 C 506.972656 238.648438 507.289062 238.640625 507.59375 238.628906 C 510.878906 238.507812 513.433594 235.769531 513.328125 232.476562 C 513.230469 229.191406 510.484375 226.539062 507.191406 226.6875 Z M 507.191406 226.6875 " fill-opacity="1" fill-rule="nonzero"/><path fill="rgb(97.24884%, 97.24884%, 97.24884%)" d="M 293.894531 417.613281 C 269.5625 417.613281 249.769531 437.402344 249.769531 461.734375 C 249.769531 486.070312 269.558594 505.859375 293.894531 505.859375 C 318.230469 505.859375 338.019531 486.070312 338.019531 461.734375 C 338.019531 437.402344 318.226562 417.613281 293.894531 417.613281 Z M 293.894531 493.90625 C 276.152344 493.90625 261.714844 479.476562 261.714844 461.730469 C 261.714844 443.984375 276.152344 429.554688 293.894531 429.554688 C 311.636719 429.554688 326.074219 443.984375 326.074219 461.730469 C 326.074219 479.476562 311.636719 493.90625 293.894531 493.90625 Z M 293.894531 493.90625 " fill-opacity="1" fill-rule="nonzero"/><path fill="rgb(97.24884%, 97.24884%, 97.24884%)" d="M 304.144531 447.785156 C 300.871094 447.40625 297.882812 449.683594 297.472656 452.960938 C 296.78125 458.457031 293.566406 462.917969 287.640625 466.609375 C 284.839844 468.355469 283.984375 472.039062 285.730469 474.839844 C 286.859375 476.65625 288.8125 477.652344 290.804688 477.652344 C 291.886719 477.652344 292.972656 477.363281 293.960938 476.753906 C 303.003906 471.121094 308.175781 463.617188 309.328125 454.460938 C 309.734375 451.183594 307.417969 448.195312 304.144531 447.785156 Z M 304.144531 447.785156 " fill-opacity="1" fill-rule="nonzero"/><path fill="rgb(97.24884%, 97.24884%, 97.24884%)" d="M 385.679688 324.121094 C 385.679688 299.792969 365.886719 279.996094 341.550781 279.996094 C 338.199219 279.996094 334.910156 280.410156 331.6875 281.148438 C 331.199219 279.539062 330.589844 277.941406 329.808594 276.402344 C 326.121094 269.109375 319.519531 263.597656 311.695312 261.277344 C 303.835938 258.9375 295.621094 259.917969 288.554688 264.007812 C 264.296875 278.082031 233.5 301.480469 224.625 333.0625 C 219.273438 352.089844 218.472656 372.882812 222.234375 394.875 C 223.472656 402.074219 229.136719 407.359375 236.328125 408.027344 C 236.835938 408.074219 237.335938 408.097656 237.839844 408.097656 C 244.433594 408.097656 250.261719 404.054688 252.625 397.6875 C 261.972656 372.484375 276.703125 351.085938 298.128906 331.769531 C 301.765625 352.460938 319.824219 368.242188 341.546875 368.242188 C 365.882812 368.242188 385.679688 348.453125 385.679688 324.121094 Z M 241.429688 393.53125 C 240.46875 396.128906 238.328125 396.183594 237.4375 396.136719 C 236.566406 396.050781 234.480469 395.566406 234.015625 392.855469 C 230.550781 372.632812 231.261719 353.601562 236.128906 336.292969 C 239.085938 325.785156 245.136719 316.207031 252.496094 307.730469 C 256.847656 309.910156 260.109375 313.378906 262.304688 318.363281 C 263.292969 320.59375 265.476562 321.925781 267.777344 321.925781 C 268.585938 321.925781 269.402344 321.765625 270.183594 321.417969 C 273.203125 320.085938 274.570312 316.5625 273.238281 313.546875 C 270.425781 307.167969 266.242188 302.367188 260.96875 298.933594 C 266.898438 293.339844 273.195312 288.390625 279.1875 284.171875 C 284.289062 287.894531 287.824219 292.683594 289.742188 298.859375 C 290.539062 301.421875 292.898438 303.058594 295.449219 303.058594 C 296.039062 303.058594 296.636719 302.96875 297.222656 302.789062 C 300.371094 301.8125 302.132812 298.460938 301.152344 295.3125 C 298.917969 288.121094 295 282.136719 289.648438 277.285156 C 291.355469 276.234375 293.015625 275.230469 294.550781 274.339844 C 297.246094 272.777344 300.226562 271.980469 303.25 271.980469 C 304.925781 271.980469 306.625 272.226562 308.289062 272.722656 C 313.046875 274.132812 316.898438 277.351562 319.144531 281.789062 C 323.09375 289.597656 320.761719 299.199219 313.738281 304.140625 C 308.988281 307.480469 304.492188 310.878906 300.191406 314.328125 C 300.09375 314.402344 300.015625 314.480469 299.921875 314.558594 C 271.65625 337.308594 252.855469 362.714844 241.429688 393.53125 Z M 341.550781 356.296875 C 323.808594 356.296875 309.371094 341.863281 309.371094 324.121094 C 309.371094 323.472656 309.457031 322.851562 309.496094 322.21875 C 313.058594 319.417969 316.730469 316.640625 320.613281 313.917969 C 327.578125 309.019531 331.726562 301.410156 332.691406 293.335938 C 335.570312 292.511719 338.511719 291.945312 341.550781 291.945312 C 359.292969 291.945312 373.730469 306.375 373.730469 324.121094 C 373.730469 341.863281 359.292969 356.296875 341.550781 356.296875 Z M 341.550781 356.296875 " fill-opacity="1" fill-rule="nonzero"/><path fill="rgb(97.24884%, 97.24884%, 97.24884%)" d="M 351.800781 310.167969 C 348.535156 309.785156 345.535156 312.066406 345.128906 315.34375 C 344.4375 320.839844 341.222656 325.308594 335.296875 329 C 332.496094 330.742188 331.640625 334.429688 333.386719 337.230469 C 334.515625 339.046875 336.46875 340.042969 338.464844 340.042969 C 339.542969 340.042969 340.632812 339.75 341.617188 339.140625 C 350.660156 333.507812 355.828125 326.007812 356.988281 316.84375 C 357.394531 313.570312 355.074219 310.585938 351.800781 310.167969 Z M 351.800781 310.167969 " fill-opacity="1" fill-rule="nonzero"/><path fill="rgb(97.24884%, 97.24884%, 97.24884%)" d="M 461.785156 400.410156 C 461.785156 382.003906 445.40625 367.023438 425.277344 367.023438 C 405.144531 367.023438 388.765625 382.003906 388.765625 400.410156 C 388.765625 418.828125 405.144531 433.808594 425.277344 433.808594 C 445.40625 433.808594 461.785156 418.828125 461.785156 400.410156 Z M 425.277344 421.859375 C 411.734375 421.859375 400.714844 412.246094 400.714844 400.410156 C 400.714844 388.589844 411.734375 378.96875 425.277344 378.96875 C 438.820312 378.96875 449.839844 388.585938 449.839844 400.410156 C 449.839844 412.238281 438.820312 421.859375 425.277344 421.859375 Z M 425.277344 421.859375 " fill-opacity="1" fill-rule="nonzero"/><path fill="rgb(97.24884%, 97.24884%, 97.24884%)" d="M 565.261719 425.085938 C 543.007812 413.367188 512.867188 426.730469 498.027344 454.875 C 483.195312 483.011719 489.210938 515.4375 511.445312 527.164062 C 516.90625 530.035156 522.882812 531.480469 529.097656 531.480469 C 535.453125 531.480469 542.046875 529.976562 548.578125 526.964844 C 560.9375 521.269531 571.621094 510.761719 578.675781 497.382812 C 593.507812 469.238281 587.496094 436.8125 565.261719 425.085938 Z M 568.109375 491.816406 C 562.273438 502.882812 553.566406 511.507812 543.578125 516.113281 C 534.125 520.46875 524.695312 520.640625 517.023438 516.589844 C 500.621094 507.941406 496.847656 482.753906 508.609375 460.441406 C 517.664062 443.269531 533.332031 432.71875 547.550781 432.71875 C 551.800781 432.71875 555.925781 433.664062 559.699219 435.652344 C 576.097656 444.300781 579.871094 469.496094 568.109375 491.816406 Z M 568.109375 491.816406 " fill-opacity="1" fill-rule="nonzero"/><path fill="rgb(97.24884%, 97.24884%, 97.24884%)" d="M 554.652344 453.0625 C 553.589844 449.941406 550.195312 448.261719 547.070312 449.324219 C 530.496094 454.957031 519.886719 476.890625 521.816406 492.007812 C 522.199219 495.023438 524.773438 497.222656 527.730469 497.222656 C 527.980469 497.222656 528.238281 497.203125 528.492188 497.171875 C 531.761719 496.753906 534.078125 493.761719 533.660156 490.488281 C 532.371094 480.359375 540.230469 464.269531 550.914062 460.644531 C 554.042969 459.578125 555.714844 456.1875 554.652344 453.0625 Z M 554.652344 453.0625 " fill-opacity="1" fill-rule="nonzero"/><path fill="rgb(97.24884%, 97.24884%, 97.24884%)" d="M 560.226562 470.945312 C 557.363281 469.296875 553.707031 470.273438 552.066406 473.132812 L 547.550781 480.949219 C 545.902344 483.804688 546.875 487.460938 549.730469 489.109375 C 550.671875 489.652344 551.699219 489.910156 552.714844 489.910156 C 554.785156 489.910156 556.789062 488.839844 557.894531 486.925781 L 562.410156 479.105469 C 564.054688 476.257812 563.082031 472.601562 560.226562 470.945312 Z M 560.226562 470.945312 " fill-opacity="1" fill-rule="nonzero"/><path fill="rgb(97.24884%, 97.24884%, 97.24884%)" d="M 455.59375 298.375 C 456.769531 299.636719 458.363281 300.277344 459.964844 300.277344 C 461.421875 300.277344 462.886719 299.742188 464.03125 298.675781 C 466.445312 296.421875 466.582031 292.640625 464.335938 290.230469 L 445.539062 270.035156 C 443.292969 267.621094 439.503906 267.496094 437.097656 269.730469 C 434.683594 271.980469 434.546875 275.761719 436.792969 278.175781 Z M 455.59375 298.375 " fill-opacity="1" fill-rule="nonzero"/><path fill="rgb(97.24884%, 97.24884%, 97.24884%)" d="M 500.191406 354.800781 C 497.269531 356.332031 496.136719 359.933594 497.664062 362.867188 L 509.496094 385.496094 C 510.566406 387.535156 512.644531 388.699219 514.796875 388.699219 C 515.726562 388.699219 516.671875 388.484375 517.554688 388.019531 C 520.476562 386.488281 521.613281 382.886719 520.082031 379.953125 L 508.25 357.324219 C 506.71875 354.402344 503.117188 353.25 500.191406 354.800781 Z M 500.191406 354.800781 " fill-opacity="1" fill-rule="nonzero"/><path fill="rgb(97.24884%, 97.24884%, 97.24884%)" d="M 229.488281 251.410156 C 231.304688 251.410156 233.09375 250.585938 234.273438 249.027344 L 255.59375 220.613281 C 257.574219 217.972656 257.039062 214.230469 254.398438 212.253906 C 251.761719 210.273438 248.015625 210.8125 246.035156 213.441406 L 224.714844 241.855469 C 222.730469 244.496094 223.269531 248.238281 225.910156 250.214844 C 226.980469 251.015625 228.238281 251.410156 229.488281 251.410156 Z M 229.488281 251.410156 " fill-opacity="1" fill-rule="nonzero"/><path fill="rgb(97.24884%, 97.24884%, 97.24884%)" d="M 404.929688 204.90625 C 405.546875 204.984375 406.167969 205.023438 406.78125 205.023438 C 411.949219 205.023438 417.0625 202.390625 421.054688 197.605469 C 424.964844 192.917969 427.59375 186.484375 428.453125 179.492188 C 430.378906 163.855469 423.066406 150.511719 411.804688 149.128906 C 406.03125 148.425781 400.144531 151.082031 395.691406 156.433594 C 391.777344 161.125 389.148438 167.558594 388.289062 174.550781 C 386.359375 190.1875 393.671875 203.527344 404.929688 204.90625 Z M 400.140625 176.007812 C 400.714844 171.335938 402.433594 166.988281 404.859375 164.082031 C 406.53125 162.078125 408.359375 160.960938 409.949219 160.960938 C 410.078125 160.960938 410.210938 160.976562 410.34375 160.988281 C 414.21875 161.464844 417.71875 168.859375 416.585938 178.035156 C 416.011719 182.703125 414.292969 187.050781 411.867188 189.960938 C 410.050781 192.128906 408.066406 193.210938 406.382812 193.0625 C 402.503906 192.578125 399.011719 185.183594 400.140625 176.007812 Z M 400.140625 176.007812 " fill-opacity="1" fill-rule="nonzero"/><path fill="rgb(97.24884%, 97.24884%, 97.24884%)" d="M 582.523438 288.175781 C 588.179688 291.441406 594.375 293.210938 600.109375 293.210938 C 600.558594 293.210938 601 293.199219 601.441406 293.171875 C 608.40625 292.832031 614.066406 289.75 616.980469 284.703125 C 622.648438 274.878906 616.398438 261.015625 602.757812 253.132812 C 589.101562 245.246094 573.96875 246.78125 568.296875 256.601562 C 565.386719 261.648438 565.542969 268.09375 568.730469 274.292969 C 571.519531 279.722656 576.425781 284.652344 582.523438 288.175781 Z M 578.648438 262.574219 C 579.589844 260.945312 581.980469 260.019531 585.097656 260.019531 C 588.449219 260.019531 592.644531 261.082031 596.789062 263.476562 C 604.800781 268.097656 608.597656 275.339844 606.640625 278.730469 C 605.796875 280.1875 603.695312 281.101562 600.867188 281.246094 C 597.070312 281.429688 592.582031 280.183594 588.503906 277.828125 C 584.425781 275.476562 581.089844 272.195312 579.363281 268.828125 C 578.0625 266.3125 577.804688 264.03125 578.648438 262.574219 Z M 578.648438 262.574219 " fill-opacity="1" fill-rule="nonzero"/><path fill="rgb(97.24884%, 97.24884%, 97.24884%)" d="M 370.820312 453.632812 C 366.152344 457.5625 362.433594 463.445312 360.367188 470.175781 C 355.734375 485.234375 360.589844 499.644531 371.4375 502.992188 C 372.902344 503.4375 374.417969 503.660156 375.945312 503.660156 C 380.230469 503.660156 384.65625 501.921875 388.585938 498.613281 C 393.257812 494.683594 396.96875 488.804688 399.039062 482.066406 C 401.113281 475.335938 401.347656 468.394531 399.699219 462.519531 C 397.816406 455.804688 393.546875 450.972656 387.976562 449.257812 C 382.417969 447.5625 376.15625 449.144531 370.820312 453.632812 Z M 388.191406 465.742188 C 389.214844 469.386719 389.003906 474.058594 387.621094 478.5625 C 386.238281 483.066406 383.777344 487.042969 380.886719 489.480469 C 378.71875 491.300781 376.554688 492.035156 374.949219 491.578125 C 371.210938 490.425781 369.066406 482.523438 371.785156 473.6875 C 373.164062 469.191406 375.617188 465.210938 378.515625 462.777344 C 380.25 461.316406 381.980469 460.535156 383.425781 460.535156 C 383.789062 460.535156 384.128906 460.589844 384.453125 460.683594 C 386.066406 461.179688 387.421875 463.019531 388.191406 465.742188 Z M 388.191406 465.742188 " fill-opacity="1" fill-rule="nonzero"/><path fill="rgb(97.24884%, 97.24884%, 97.24884%)" d="M 295.65625 590.632812 C 288.632812 591.128906 282.066406 593.425781 277.179688 597.089844 C 271.601562 601.269531 268.644531 607.003906 269.0625 612.816406 C 269.820312 623.417969 281.238281 631.097656 295.609375 631.097656 C 296.570312 631.097656 297.550781 631.0625 298.535156 630.992188 C 314.257812 629.867188 325.9375 620.121094 325.128906 608.808594 C 324.324219 597.488281 311.402344 589.496094 295.65625 590.632812 Z M 297.6875 619.074219 C 288.476562 619.691406 281.261719 615.863281 280.984375 611.960938 C 280.859375 610.285156 282.097656 608.347656 284.355469 606.640625 C 287.382812 604.371094 291.816406 602.875 296.511719 602.535156 C 297.203125 602.488281 297.890625 602.464844 298.558594 602.464844 C 306.78125 602.464844 312.960938 606.046875 313.21875 609.648438 C 313.5 613.554688 306.910156 618.414062 297.6875 619.074219 Z M 297.6875 619.074219 " fill-opacity="1" fill-rule="nonzero"/><path fill="rgb(97.24884%, 97.24884%, 97.24884%)" d="M 469.390625 573.539062 C 458.84375 569.410156 446.046875 577.617188 440.269531 592.28125 C 434.492188 606.9375 438.234375 621.6875 448.789062 625.84375 C 450.640625 626.570312 452.558594 626.917969 454.492188 626.917969 C 463.609375 626.917969 473.15625 619.199219 477.921875 607.113281 C 483.691406 592.441406 479.945312 577.695312 469.390625 573.539062 Z M 466.804688 602.726562 C 463.410156 611.335938 456.800781 616.171875 453.167969 614.726562 C 449.527344 613.292969 447.988281 605.261719 451.382812 596.660156 C 454.773438 588.058594 461.363281 583.207031 465.019531 584.660156 C 468.65625 586.09375 470.191406 594.121094 466.804688 602.726562 Z M 466.804688 602.726562 " fill-opacity="1" fill-rule="nonzero"/><path fill="rgb(97.24884%, 97.24884%, 97.24884%)" d="M 608.472656 513.675781 C 595.253906 513.675781 584.496094 524.433594 584.496094 537.652344 C 584.496094 550.871094 595.246094 561.628906 608.472656 561.628906 C 621.699219 561.628906 632.453125 550.871094 632.453125 537.652344 C 632.453125 524.433594 621.699219 513.675781 608.472656 513.675781 Z M 608.472656 549.675781 C 601.84375 549.675781 596.441406 544.28125 596.441406 537.644531 C 596.441406 531.011719 601.835938 525.617188 608.472656 525.617188 C 615.109375 525.617188 620.503906 531.011719 620.503906 537.644531 C 620.503906 544.28125 615.109375 549.675781 608.472656 549.675781 Z M 608.472656 549.675781 " fill-opacity="1" fill-rule="nonzero"/><path fill="rgb(97.24884%, 97.24884%, 97.24884%)" d="M 150.515625 379.535156 C 138.0625 379.535156 127.925781 389.667969 127.925781 402.121094 C 127.925781 414.578125 138.0625 424.710938 150.515625 424.710938 C 162.972656 424.710938 173.109375 414.578125 173.109375 402.121094 C 173.109375 389.667969 162.972656 379.535156 150.515625 379.535156 Z M 150.515625 412.765625 C 144.644531 412.765625 139.871094 407.984375 139.871094 402.121094 C 139.871094 396.253906 144.644531 391.484375 150.515625 391.484375 C 156.382812 391.484375 161.164062 396.253906 161.164062 402.121094 C 161.164062 407.984375 156.382812 412.765625 150.515625 412.765625 Z M 150.515625 412.765625 " fill-opacity="1" fill-rule="nonzero"/><path fill="rgb(97.24884%, 97.24884%, 97.24884%)" d="M 166.597656 316.832031 C 156.71875 313.816406 145.691406 322.09375 141.496094 335.71875 C 139.632812 341.765625 139.417969 348.011719 140.886719 353.292969 C 142.597656 359.4375 146.507812 363.871094 151.628906 365.433594 C 152.984375 365.851562 154.375 366.054688 155.792969 366.054688 C 159.722656 366.054688 163.765625 364.46875 167.351562 361.4375 C 171.542969 357.890625 174.878906 352.605469 176.734375 346.558594 C 178.597656 340.515625 178.8125 334.269531 177.34375 328.980469 C 175.636719 322.839844 171.722656 318.402344 166.597656 316.832031 Z M 165.320312 343.046875 C 164.136719 346.882812 162.0625 350.261719 159.632812 352.324219 C 157.960938 353.734375 156.292969 354.378906 155.148438 354.019531 C 154.019531 353.667969 152.992188 352.203125 152.40625 350.097656 C 151.550781 347.019531 151.734375 343.058594 152.914062 339.230469 C 155.105469 332.113281 159.777344 328.15625 162.433594 328.15625 C 162.667969 328.15625 162.882812 328.1875 163.085938 328.253906 C 164.214844 328.597656 165.242188 330.070312 165.828125 332.175781 C 166.6875 335.253906 166.503906 339.21875 165.320312 343.046875 Z M 165.320312 343.046875 " fill-opacity="1" fill-rule="nonzero"/><path fill="rgb(97.24884%, 97.24884%, 97.24884%)" d="M 626.476562 384.714844 C 614.113281 384.714844 604.058594 394.773438 604.058594 407.136719 C 604.058594 419.5 614.117188 429.558594 626.476562 429.558594 C 638.835938 429.558594 648.894531 419.5 648.894531 407.136719 C 648.894531 394.773438 638.84375 384.714844 626.476562 384.714844 Z M 626.476562 417.613281 C 620.703125 417.613281 616.007812 412.914062 616.007812 407.136719 C 616.007812 401.363281 620.707031 396.660156 626.476562 396.660156 C 632.25 396.660156 636.949219 401.363281 636.949219 407.136719 C 636.949219 412.914062 632.253906 417.613281 626.476562 417.613281 Z M 626.476562 417.613281 " fill-opacity="1" fill-rule="nonzero"/><path fill="rgb(97.24884%, 97.24884%, 97.24884%)" d="M 529.730469 334.546875 C 535.089844 347.8125 544.980469 350.019531 550.960938 350.019531 C 552.5625 350.019531 553.875 349.863281 554.753906 349.714844 C 563.664062 348.226562 575.648438 338.554688 573.0625 322.519531 C 570.558594 307.011719 539.855469 286.933594 533.726562 283.066406 C 531.285156 281.53125 528.09375 281.949219 526.132812 284.082031 C 524.179688 286.203125 524.03125 289.429688 525.777344 291.726562 C 530.015625 297.324219 529.28125 305.339844 528.511719 313.839844 C 527.867188 320.9375 527.191406 328.277344 529.730469 334.546875 Z M 540.410156 314.925781 C 540.769531 311.019531 541.144531 306.898438 541.039062 302.785156 C 551.042969 310.496094 560.445312 319.335938 561.269531 324.425781 C 563.054688 335.503906 552.894531 337.917969 552.792969 337.933594 C 547.328125 338.832031 543.285156 336.207031 540.8125 330.085938 C 539.351562 326.484375 539.867188 320.871094 540.410156 314.925781 Z M 540.410156 314.925781 " fill-opacity="1" fill-rule="nonzero"/><path fill="rgb(97.24884%, 97.24884%, 97.24884%)" d="M 415.6875 618.910156 C 412.972656 617.933594 409.941406 619.035156 408.492188 621.523438 C 404.972656 627.597656 397.285156 630.023438 389.144531 632.585938 C 382.351562 634.726562 375.324219 636.941406 370.511719 641.699219 C 357.621094 654.449219 363.933594 667.066406 366.179688 670.640625 C 369.449219 675.84375 376.757812 680.890625 385.449219 680.890625 C 389.535156 680.890625 393.925781 679.773438 398.34375 677.03125 C 411.679688 668.730469 418.351562 632.664062 419.554688 625.519531 C 420.03125 622.671875 418.40625 619.886719 415.6875 618.910156 Z M 392.035156 666.882812 C 382.5 672.820312 376.351562 664.367188 376.300781 664.277344 C 373.34375 659.578125 374.222656 654.835938 378.914062 650.195312 C 381.675781 647.464844 387.050781 645.773438 392.738281 643.984375 C 396.484375 642.800781 400.425781 641.558594 404.191406 639.867188 C 400.941406 652.074219 396.414062 664.160156 392.035156 666.882812 Z M 392.035156 666.882812 " fill-opacity="1" fill-rule="nonzero"/><path fill="rgb(97.24884%, 97.24884%, 97.24884%)" d="M 388.648438 596.394531 C 401.980469 588.101562 408.660156 552.023438 409.859375 544.878906 C 410.335938 542.03125 408.710938 539.253906 405.992188 538.273438 C 403.28125 537.304688 400.246094 538.398438 398.796875 540.890625 C 395.277344 546.964844 387.589844 549.390625 379.449219 551.953125 C 372.65625 554.089844 365.628906 556.304688 360.816406 561.066406 C 347.929688 573.820312 354.246094 586.4375 356.484375 590.003906 C 359.753906 595.207031 367.0625 600.253906 375.757812 600.253906 C 379.84375 600.253906 384.226562 599.136719 388.648438 596.394531 Z M 366.597656 583.648438 C 363.640625 578.949219 364.527344 574.207031 369.214844 569.566406 C 371.976562 566.835938 377.351562 565.144531 383.039062 563.355469 C 386.78125 562.171875 390.726562 560.929688 394.488281 559.238281 C 391.238281 571.445312 386.710938 583.535156 382.332031 586.253906 C 372.804688 592.191406 366.652344 583.738281 366.597656 583.648438 Z M 366.597656 583.648438 " fill-opacity="1" fill-rule="nonzero"/><path fill="rgb(97.24884%, 97.24884%, 97.24884%)" d="M 229.988281 554.945312 C 228.9375 547.894531 227.855469 540.613281 223.910156 535.109375 C 213.339844 520.382812 199.882812 524.632812 196.011719 526.285156 C 187.695312 529.832031 178.34375 542.066406 184.65625 557.039062 C 190.753906 571.511719 225.328125 583.769531 232.199219 586.074219 C 232.828125 586.285156 233.472656 586.386719 234.105469 586.386719 C 236.230469 586.386719 238.261719 585.246094 239.332031 583.292969 C 240.722656 580.765625 240.113281 577.605469 237.875 575.777344 C 232.433594 571.351562 231.242188 563.378906 229.988281 554.945312 Z M 195.664062 552.398438 C 191.304688 542.046875 200.613281 537.316406 200.707031 537.277344 C 202.183594 536.648438 203.605469 536.332031 204.976562 536.332031 C 208.378906 536.332031 211.464844 538.25 214.207031 542.074219 C 216.464844 545.226562 217.296875 550.796875 218.171875 556.699219 C 218.753906 560.589844 219.363281 564.691406 220.449219 568.675781 C 208.226562 563.253906 197.542969 556.855469 195.664062 552.398438 Z M 195.664062 552.398438 " fill-opacity="1" fill-rule="nonzero"/><path fill="rgb(97.24884%, 97.24884%, 97.24884%)" d="M 348.46875 262.71875 C 352.769531 265.269531 357.015625 266.320312 360.972656 266.320312 C 369.859375 266.320312 377.273438 261.019531 380.488281 255.65625 C 382.65625 252.050781 388.699219 239.292969 375.546875 226.820312 C 370.636719 222.167969 363.5625 220.101562 356.722656 218.101562 C 348.535156 215.710938 340.796875 213.453125 337.148438 207.457031 C 335.648438 204.988281 332.597656 203.957031 329.902344 204.984375 C 327.207031 206.023438 325.636719 208.84375 326.175781 211.671875 C 327.53125 218.792969 334.960938 254.707031 348.46875 262.71875 Z M 353.375 229.5625 C 359.097656 231.234375 364.507812 232.816406 367.320312 235.480469 C 372.113281 240.027344 373.097656 244.746094 370.238281 249.511719 C 370.183594 249.601562 364.226562 258.183594 354.5625 252.4375 C 350.402344 249.976562 345.523438 238.519531 341.8125 225.679688 C 345.621094 227.296875 349.589844 228.464844 353.375 229.5625 Z M 353.375 229.5625 " fill-opacity="1" fill-rule="nonzero"/><path fill="rgb(97.24884%, 97.24884%, 97.24884%)" d="M 454.730469 509.730469 L 450.902344 529.570312 C 450.28125 532.808594 452.398438 535.9375 455.632812 536.566406 C 456.015625 536.644531 456.398438 536.679688 456.769531 536.679688 C 459.578125 536.679688 462.078125 534.695312 462.628906 531.835938 L 466.457031 511.992188 C 467.078125 508.753906 464.964844 505.625 461.726562 505 C 458.472656 504.371094 455.359375 506.492188 454.730469 509.730469 Z M 454.730469 509.730469 " fill-opacity="1" fill-rule="nonzero"/><path fill="rgb(97.24884%, 97.24884%, 97.24884%)" d="M 523.214844 191.496094 C 520.453125 189.667969 516.753906 190.421875 514.933594 193.179688 L 506.476562 205.96875 C 504.652344 208.722656 505.410156 212.425781 508.160156 214.246094 C 509.175781 214.917969 510.316406 215.238281 511.449219 215.238281 C 513.386719 215.238281 515.292969 214.300781 516.4375 212.5625 L 524.898438 199.773438 C 526.71875 197.019531 525.964844 193.316406 523.214844 191.496094 Z M 523.214844 191.496094 " fill-opacity="1" fill-rule="nonzero"/><path fill="rgb(97.24884%, 97.24884%, 97.24884%)" d="M 529.265625 582.292969 C 526.109375 581.390625 522.777344 583.152344 521.832031 586.320312 L 513.039062 615.875 C 512.101562 619.035156 513.898438 622.359375 517.058594 623.304688 C 517.628906 623.464844 518.199219 623.550781 518.769531 623.550781 C 521.34375 623.550781 523.722656 621.875 524.492188 619.277344 L 533.285156 589.722656 C 534.226562 586.566406 532.425781 583.238281 529.265625 582.292969 Z M 529.265625 582.292969 " fill-opacity="1" fill-rule="nonzero"/><path fill="rgb(97.24884%, 97.24884%, 97.24884%)" d="M 197.21875 467.703125 L 222.628906 467.703125 C 225.925781 467.703125 228.605469 465.035156 228.605469 461.730469 C 228.605469 458.425781 225.925781 455.757812 222.628906 455.757812 L 197.21875 455.757812 C 193.921875 455.757812 191.246094 458.425781 191.246094 461.730469 C 191.246094 465.035156 193.921875 467.703125 197.21875 467.703125 Z M 197.21875 467.703125 " fill-opacity="1" fill-rule="nonzero"/><path fill="rgb(97.24884%, 97.24884%, 97.24884%)" d="M 281.703125 549.765625 L 307.113281 554.484375 C 307.484375 554.554688 307.847656 554.585938 308.214844 554.585938 C 311.039062 554.585938 313.546875 552.578125 314.078125 549.707031 C 314.683594 546.460938 312.539062 543.34375 309.292969 542.742188 L 283.882812 538.023438 C 280.640625 537.394531 277.519531 539.558594 276.917969 542.808594 C 276.320312 546.042969 278.457031 549.164062 281.703125 549.765625 Z M 281.703125 549.765625 " fill-opacity="1" fill-rule="nonzero"/><path fill="rgb(97.24884%, 97.24884%, 97.24884%)" d="M 620.199219 356.820312 C 621.09375 357.292969 622.058594 357.519531 623.007812 357.519531 C 625.140625 357.519531 627.207031 356.375 628.28125 354.359375 L 640.730469 331.023438 C 642.285156 328.117188 641.183594 324.496094 638.269531 322.9375 C 635.355469 321.390625 631.742188 322.496094 630.1875 325.398438 L 617.738281 348.734375 C 616.191406 351.648438 617.289062 355.261719 620.199219 356.820312 Z M 620.199219 356.820312 " fill-opacity="1" fill-rule="nonzero"/></svg>