<svg xmlns="http://www.w3.org/2000/svg" xmlns:xlink="http://www.w3.org/1999/xlink" width="95" zoomAndPan="magnify" viewBox="0 0 71.25 71.25" height="95" preserveAspectRatio="xMidYMid meet" version="1.0"><defs><clipPath id="id1"><path d="M 0 2 L 70 2 L 70 69.167969 L 0 69.167969 Z M 0 2 " clip-rule="nonzero"/></clipPath></defs><path fill="rgb(85.099792%, 85.099792%, 85.099792%)" d="M 40.417969 54.050781 C 40.636719 53.894531 40.890625 53.792969 41.160156 53.769531 C 41.246094 53.761719 41.34375 53.761719 41.40625 53.824219 C 41.101562 53.972656 40.757812 54.050781 40.417969 54.050781 Z M 40.417969 54.050781 " fill-opacity="1" fill-rule="nonzero"/><path fill="rgb(85.099792%, 85.099792%, 85.099792%)" d="M 15.722656 36.644531 C 15.574219 36.472656 15.515625 36.242188 15.417969 36.039062 C 15.207031 35.59375 14.757812 35.230469 14.265625 35.25 C 13.691406 35.265625 13.222656 35.8125 13.175781 36.382812 C 13.128906 36.953125 13.425781 37.515625 13.855469 37.894531 C 14.121094 38.132812 14.066406 38.613281 13.785156 38.832031 C 13.503906 39.050781 13.089844 39.035156 12.777344 38.863281 C 12.460938 38.691406 12.242188 38.394531 12.078125 38.074219 C 11.707031 37.363281 11.578125 36.515625 11.777344 35.738281 C 11.980469 34.960938 12.523438 34.269531 13.257812 33.941406 C 13.953125 33.636719 14.777344 33.671875 15.457031 34.011719 C 16.140625 34.347656 16.664062 34.972656 16.917969 35.691406 C 16.988281 35.882812 17.035156 36.089844 17.003906 36.289062 C 16.953125 36.566406 16.738281 36.800781 16.472656 36.878906 C 16.207031 36.949219 15.902344 36.855469 15.722656 36.644531 Z M 15.722656 36.644531 " fill-opacity="1" fill-rule="nonzero"/><path fill="rgb(85.099792%, 85.099792%, 85.099792%)" d="M 52.953125 30.402344 C 53.132812 29.207031 54.105469 28.175781 55.285156 27.929688 C 56.003906 27.78125 56.816406 27.933594 57.316406 28.476562 C 57.609375 28.792969 57.773438 29.214844 57.835938 29.644531 C 57.886719 29.988281 57.875 30.375 57.640625 30.636719 C 57.425781 30.875 57.046875 30.949219 56.761719 30.800781 C 56.480469 30.65625 56.316406 30.304688 56.382812 29.992188 C 56.4375 29.746094 56.246094 29.488281 56.007812 29.40625 C 55.765625 29.320312 55.5 29.382812 55.273438 29.496094 C 54.78125 29.75 54.433594 30.28125 54.410156 30.84375 C 54.394531 31.160156 54.148438 31.449219 53.84375 31.523438 C 53.539062 31.59375 53.191406 31.4375 53.039062 31.160156 C 52.914062 30.933594 52.914062 30.660156 52.953125 30.402344 Z M 52.953125 30.402344 " fill-opacity="1" fill-rule="nonzero"/><g clip-path="url(#id1)"><path fill="rgb(85.099792%, 85.099792%, 85.099792%)" d="M 32.660156 10.363281 C 33.921875 9.011719 35.984375 8.484375 37.738281 9.058594 C 39.488281 9.636719 40.839844 11.289062 41.0625 13.128906 C 43.789062 13.597656 46.519531 14.070312 49.246094 14.539062 C 52.523438 15.101562 55.828125 15.671875 58.925781 16.894531 C 62.023438 18.113281 64.933594 20.042969 66.765625 22.832031 C 68.265625 25.113281 68.96875 27.839844 69.265625 30.558594 C 70.503906 42.121094 63.972656 54.132812 53.609375 59.335938 C 54.800781 61.277344 54.007812 63.964844 52.355469 65.527344 C 50.703125 67.089844 48.414062 67.757812 46.183594 68.1875 C 41.230469 69.140625 36.152344 69.167969 31.113281 69.101562 C 29.1875 69.074219 27.160156 69 25.539062 67.972656 C 23.972656 66.984375 22.988281 65.128906 23.046875 63.273438 C 15.382812 61.023438 8.292969 56.261719 4.132812 49.414062 C 2.070312 46.019531 0.757812 42.171875 0.308594 38.222656 C 0.00390625 35.53125 0.109375 32.742188 1.070312 30.214844 C 2.945312 25.269531 7.707031 22.09375 12.375 19.640625 C 9.101562 19.242188 5.980469 17.679688 3.699219 15.285156 C 3 14.546875 2.335938 13.535156 2.671875 12.570312 C 3.171875 11.128906 5.210938 11.230469 6.683594 11.609375 C 5.863281 10.164062 5.222656 7.964844 6.664062 7.152344 C 7.546875 6.65625 8.644531 7.101562 9.503906 7.636719 C 12.191406 9.320312 14.289062 11.929688 15.359375 14.925781 C 18.117188 13.890625 21.40625 14.46875 23.644531 16.382812 C 23.738281 15.765625 23.835938 15.152344 23.929688 14.535156 C 21.695312 14.417969 19.628906 13.269531 17.882812 11.863281 C 16.808594 11.003906 15.75 9.871094 15.75 8.488281 C 15.75 7.113281 17.496094 5.851562 18.53125 6.757812 C 18.085938 5.394531 17.710938 3.703125 18.714844 2.679688 C 19.738281 1.628906 21.511719 2.035156 22.785156 2.757812 C 25.449219 4.261719 27.472656 6.871094 28.28125 9.828125 C 29.632812 9.011719 31.53125 9.242188 32.660156 10.363281 M 1.816406 34.570312 C 1.363281 41.160156 3.992188 47.789062 8.414062 52.679688 C 12.835938 57.566406 18.929688 60.777344 25.335938 62.257812 C 33.761719 64.203125 42.847656 63.207031 50.621094 59.40625 C 56.390625 56.585938 61.476562 52.191406 64.632812 46.582031 C 67.792969 40.972656 68.910156 34.125 67.179688 27.921875 C 64.105469 32.582031 59.453125 36.050781 54.375 38.339844 C 49.296875 40.632812 43.789062 41.816406 38.273438 42.570312 C 29.679688 43.75 20.804688 43.90625 12.460938 41.523438 C 8.292969 40.332031 4.054688 38.304688 1.816406 34.570312 M 53.710938 23.230469 C 52.941406 22.734375 53.929688 21.308594 53.289062 20.660156 C 52.898438 20.265625 52.246094 20.484375 51.726562 20.667969 C 51.207031 20.855469 50.457031 20.886719 50.273438 20.363281 C 49.929688 19.386719 48.523438 19.535156 47.550781 19.875 C 49.050781 20.71875 50.570312 21.652344 51.535156 23.082031 C 52.5 24.511719 52.761719 26.558594 51.707031 27.921875 C 50.871094 29 49.34375 29.515625 48.835938 30.785156 C 48.089844 32.644531 45.921875 33.601562 43.925781 33.546875 C 41.925781 33.492188 40.050781 32.632812 38.238281 31.792969 C 39.125 33.238281 38.703125 35.214844 37.605469 36.503906 C 36.507812 37.789062 34.871094 38.488281 33.242188 38.914062 C 31.28125 39.425781 29.242188 39.605469 27.222656 39.445312 C 25.582031 39.3125 23.910156 38.9375 22.5625 37.984375 C 21.21875 37.027344 20.257812 35.410156 20.429688 33.765625 C 18.152344 33.507812 16.265625 31.296875 16.367188 28.992188 C 16.382812 28.679688 16.09375 28.445312 15.832031 28.273438 C 15.0625 27.757812 14.289062 27.238281 13.519531 26.71875 C 13.179688 26.492188 12.824219 26.257812 12.414062 26.214844 C 12.011719 26.175781 11.546875 26.40625 11.472656 26.8125 C 11.335938 27.5625 12.527344 28.054688 12.402344 28.808594 C 12.308594 29.355469 11.605469 29.527344 11.054688 29.464844 C 10.367188 29.386719 9.683594 29.136719 8.992188 29.242188 C 8.308594 29.34375 7.628906 30.007812 7.855469 30.667969 C 8.171875 31.570312 9.871094 31.75 9.664062 32.683594 C 9.421875 33.777344 7.242188 32.851562 6.796875 33.878906 C 7.625 34.296875 7.941406 35.484375 7.433594 36.265625 C 7.097656 36.78125 7.277344 37.503906 7.691406 37.957031 C 8.105469 38.410156 8.695312 38.652344 9.265625 38.871094 C 18.417969 42.328125 28.523438 42.519531 38.199219 41.113281 C 43.703125 40.3125 49.164062 39 54.246094 36.734375 C 57.996094 35.058594 61.617188 32.78125 63.988281 29.414062 C 63.21875 28.558594 61.960938 28.171875 60.84375 28.453125 C 60.265625 28.601562 60.035156 27.671875 60.308594 27.140625 C 60.582031 26.613281 61.078125 26.089844 60.917969 25.515625 C 60.792969 25.070312 60.285156 24.816406 59.824219 24.859375 C 59.367188 24.902344 58.960938 25.179688 58.621094 25.488281 C 58.230469 25.84375 57.632812 25.25 57.640625 24.722656 C 57.644531 24.191406 57.910156 23.65625 57.75 23.152344 C 57.4375 22.164062 55.960938 22.320312 55.101562 22.890625 C 54.679688 23.160156 54.140625 23.503906 53.710938 23.230469 M 34.144531 37.019531 C 34.9375 36.742188 35.738281 36.394531 36.3125 35.785156 C 37.03125 35.023438 37.316406 33.878906 37.046875 32.867188 C 36.777344 31.855469 35.960938 31.011719 34.960938 30.710938 C 34.542969 30.585938 34.082031 30.542969 33.753906 30.257812 C 33.425781 29.972656 33.394531 29.320312 33.804688 29.1875 C 35.125 28.757812 35.597656 26.890625 34.84375 25.71875 C 34.089844 24.550781 32.488281 24.136719 31.148438 24.5 C 30.839844 24.582031 30.496094 24.699219 30.210938 24.550781 C 29.898438 24.386719 29.8125 23.957031 29.882812 23.609375 C 29.957031 23.261719 30.148438 22.949219 30.261719 22.613281 C 30.667969 21.359375 29.808594 19.960938 28.617188 19.410156 C 27.429688 18.859375 26.035156 18.996094 24.777344 19.359375 C 24.578125 19.417969 24.367188 19.484375 24.164062 19.433594 C 23.839844 19.355469 23.652344 19.023438 23.480469 18.738281 C 22.628906 17.324219 21.167969 16.296875 19.554688 15.972656 C 17.941406 15.644531 16.199219 16.035156 14.867188 17.007812 C 14.566406 17.230469 14.117188 16.984375 13.957031 16.644531 C 13.796875 16.304688 13.832031 15.910156 13.804688 15.535156 C 13.710938 14.140625 12.785156 12.957031 11.898438 11.878906 C 10.757812 10.492188 9.519531 9.054688 7.8125 8.507812 C 7.660156 8.460938 7.480469 8.425781 7.355469 8.523438 C 7.207031 8.640625 7.226562 8.867188 7.269531 9.050781 C 7.492188 10.050781 7.929688 11.003906 8.554688 11.820312 C 8.78125 12.125 9.042969 12.417969 9.160156 12.777344 C 9.28125 13.140625 9.210938 13.597656 8.894531 13.804688 C 8.484375 14.070312 7.957031 13.792969 7.523438 13.5625 C 6.625 13.085938 5.609375 12.832031 4.59375 12.824219 C 4.421875 12.824219 4.222656 12.84375 4.136719 12.992188 C 4.046875 13.152344 4.148438 13.347656 4.253906 13.503906 C 6.203125 16.324219 9.660156 18.015625 13.070312 17.816406 C 13.40625 17.800781 13.691406 18.105469 13.769531 18.4375 C 13.851562 18.765625 13.777344 19.109375 13.710938 19.441406 C 13.429688 20.890625 13.316406 22.414062 13.753906 23.820312 C 14.191406 25.230469 15.265625 26.503906 16.695312 26.851562 C 17.066406 26.945312 17.484375 26.988281 17.738281 27.277344 C 18.074219 27.667969 17.914062 28.265625 17.855469 28.78125 C 17.746094 29.757812 18.125 30.777344 18.835938 31.445312 C 19.550781 32.113281 20.59375 32.417969 21.554688 32.238281 C 21.867188 32.179688 22.140625 32.507812 22.175781 32.828125 C 22.210938 33.144531 22.089844 33.460938 22.03125 33.773438 C 21.824219 34.9375 22.503906 36.128906 23.464844 36.8125 C 24.425781 37.496094 25.621094 37.75 26.792969 37.871094 C 29.265625 38.117188 31.792969 37.824219 34.144531 37.019531 M 31.808594 22.890625 C 33.289062 22.699219 34.84375 23.332031 35.769531 24.5 C 36.703125 25.664062 36.976562 27.328125 36.46875 28.730469 C 38.230469 30.222656 40.351562 31.28125 42.597656 31.796875 C 43.570312 32.019531 44.601562 32.136719 45.5625 31.859375 C 46.523438 31.578125 47.394531 30.824219 47.570312 29.832031 C 47.625 29.527344 47.617188 29.203125 47.714844 28.90625 C 47.8125 28.613281 48.066406 28.332031 48.375 28.339844 C 49.699219 28.394531 50.800781 27.074219 50.828125 25.75 C 50.847656 24.421875 50.015625 23.195312 48.953125 22.414062 C 47.890625 21.632812 46.605469 21.207031 45.347656 20.796875 C 44.898438 20.652344 44.8125 20.066406 44.800781 19.59375 C 44.777344 18.324219 44.75 17.058594 44.726562 15.789062 C 44.71875 15.496094 44.398438 15.328125 44.125 15.226562 C 42.933594 14.777344 41.515625 14.359375 40.476562 15.09375 C 40.1875 15.300781 39.757812 15.054688 39.621094 14.722656 C 39.488281 14.390625 39.542969 14.019531 39.539062 13.660156 C 39.535156 12.285156 38.601562 10.964844 37.3125 10.5 C 36.027344 10.035156 34.472656 10.472656 33.605469 11.53125 C 33.363281 11.824219 33.167969 12.164062 32.867188 12.386719 C 32.558594 12.609375 32.089844 12.679688 31.828125 12.410156 C 31.601562 12.175781 31.617188 11.804688 31.484375 11.503906 C 31.3125 11.117188 30.890625 10.878906 30.472656 10.832031 C 30.046875 10.789062 29.625 10.902344 29.234375 11.058594 C 27.621094 11.683594 26.273438 12.957031 25.554688 14.539062 C 25.277344 15.15625 25.089844 15.855469 25.265625 16.511719 C 25.441406 17.171875 26.070312 17.738281 26.738281 17.640625 C 28.136719 17.445312 29.617188 17.953125 30.601562 18.972656 C 31.585938 19.988281 32.046875 21.488281 31.808594 22.890625 M 59.324219 23.414062 C 60.238281 23.183594 61.269531 23.511719 61.878906 24.234375 C 62.484375 24.957031 62.640625 26.039062 62.253906 26.902344 C 63.289062 27.070312 64.28125 27.542969 65.058594 28.25 C 66.175781 27.144531 66.253906 25.277344 65.59375 23.851562 C 64.9375 22.421875 63.679688 21.359375 62.375 20.492188 C 57.742188 17.402344 52.117188 16.164062 46.574219 15.675781 C 46.433594 15.664062 46.234375 15.699219 46.234375 15.84375 C 46.269531 16.804688 46.285156 17.765625 46.285156 18.726562 C 47.15625 18.410156 48.050781 18.089844 48.976562 18.070312 C 49.90625 18.050781 50.890625 18.394531 51.417969 19.164062 C 52.164062 18.800781 53.085938 18.835938 53.804688 19.25 C 54.519531 19.664062 55.015625 20.449219 55.082031 21.28125 C 55.878906 20.746094 56.964844 20.675781 57.820312 21.109375 C 58.675781 21.539062 59.273438 22.453125 59.324219 23.414062 M 21.191406 7.703125 C 21.433594 7.867188 21.546875 8.191406 21.476562 8.476562 C 21.402344 8.761719 21.144531 8.980469 20.855469 9.007812 C 20.574219 9.039062 20.300781 8.894531 20.042969 8.773438 C 19.375 8.453125 18.667969 8.222656 17.941406 8.09375 C 17.777344 8.066406 17.605469 8.042969 17.445312 8.085938 C 17.285156 8.132812 17.136719 8.261719 17.121094 8.429688 C 17.109375 8.542969 17.164062 8.660156 17.222656 8.761719 C 17.898438 9.984375 18.996094 10.925781 20.175781 11.671875 C 21.199219 12.320312 22.324219 12.851562 23.523438 13.003906 C 23.859375 13.050781 24.214844 13.0625 24.523438 12.925781 C 25.28125 12.597656 25.5 11.546875 26.242188 11.175781 C 26.574219 11.003906 26.753906 10.609375 26.769531 10.234375 C 26.78125 9.859375 26.65625 9.492188 26.511719 9.144531 C 25.554688 6.839844 23.746094 4.90625 21.523438 3.804688 C 21.179688 3.636719 20.8125 3.484375 20.429688 3.5 C 20.050781 3.511719 19.652344 3.742188 19.554688 4.113281 C 19.492188 4.351562 19.558594 4.601562 19.621094 4.835938 C 19.921875 5.914062 20.277344 7.070312 21.191406 7.703125 M 8.890625 27.824219 C 9.320312 27.765625 9.757812 27.742188 10.1875 27.765625 C 9.949219 27.300781 9.882812 26.75 10.003906 26.242188 C 10.058594 26.007812 10.152344 25.785156 10.289062 25.589844 C 10.769531 24.925781 11.675781 24.761719 12.492188 24.71875 C 12.160156 23.761719 11.980469 22.753906 11.960938 21.742188 C 9.363281 23.019531 6.835938 24.558594 4.878906 26.707031 C 4.183594 27.472656 3.5625 28.3125 3.144531 29.257812 C 2.726562 30.207031 2.519531 31.257812 2.664062 32.285156 C 2.921875 34.101562 4.230469 35.585938 5.648438 36.738281 C 5.734375 36.433594 5.824219 36.125 5.910156 35.824219 C 5.980469 35.582031 6.039062 35.296875 5.875 35.109375 C 5.414062 34.597656 5.273438 33.820312 5.515625 33.179688 C 5.757812 32.535156 6.371094 32.050781 7.054688 31.96875 C 6.558594 31.316406 6.101562 30.539062 6.238281 29.730469 C 6.335938 29.15625 6.742188 28.664062 7.234375 28.355469 C 7.738281 28.046875 8.316406 27.90625 8.890625 27.824219 Z M 8.890625 27.824219 " fill-opacity="1" fill-rule="nonzero"/></g><path fill="rgb(85.099792%, 85.099792%, 85.099792%)" d="M 26.027344 50.191406 C 26.695312 50.105469 27.359375 49.890625 27.902344 49.492188 C 28.441406 49.089844 28.855469 48.484375 28.941406 47.8125 C 28.996094 47.394531 28.957031 46.902344 29.285156 46.640625 C 29.613281 46.386719 30.132812 46.570312 30.347656 46.917969 C 30.566406 47.273438 30.546875 47.722656 30.460938 48.128906 C 30.210938 49.269531 29.453125 50.269531 28.46875 50.894531 C 27.484375 51.519531 26.300781 51.78125 25.140625 51.742188 C 24.011719 51.703125 22.886719 51.375 21.953125 50.738281 C 21.015625 50.101562 20.285156 49.148438 19.976562 48.0625 C 19.886719 47.734375 19.835938 47.363281 20.011719 47.074219 C 20.253906 46.683594 20.90625 46.65625 21.179688 47.027344 C 21.304688 47.199219 21.347656 47.410156 21.40625 47.613281 C 21.679688 48.539062 22.375 49.308594 23.226562 49.75 C 24.078125 50.191406 25.074219 50.316406 26.027344 50.191406 Z M 26.027344 50.191406 " fill-opacity="1" fill-rule="nonzero"/><path fill="rgb(85.099792%, 85.099792%, 85.099792%)" d="M 34.339844 50.265625 C 34.347656 49.863281 34.769531 49.519531 35.164062 49.59375 C 35.546875 49.664062 35.792969 50.03125 36.023438 50.347656 C 37.074219 51.796875 38.871094 52.816406 40.625 52.480469 C 42.171875 52.183594 43.414062 50.847656 43.78125 49.308594 C 43.851562 49.015625 43.894531 48.710938 44.039062 48.445312 C 44.179688 48.175781 44.445312 47.953125 44.742188 47.972656 C 45.054688 47.992188 45.296875 48.273438 45.375 48.574219 C 45.449219 48.871094 45.386719 49.191406 45.308594 49.492188 C 44.820312 51.359375 43.53125 53.070312 41.730469 53.734375 C 40.449219 54.210938 38.988281 54.125 37.726562 53.597656 C 36.460938 53.070312 35.394531 52.125 34.625 50.992188 C 34.480469 50.777344 34.335938 50.53125 34.339844 50.265625 Z M 34.339844 50.265625 " fill-opacity="1" fill-rule="nonzero"/><path fill="rgb(85.099792%, 85.099792%, 85.099792%)" d="M 47.707031 44.960938 C 47.996094 44.785156 48.378906 44.890625 48.648438 45.089844 C 48.917969 45.296875 49.117188 45.582031 49.355469 45.816406 C 49.730469 46.175781 50.207031 46.40625 50.703125 46.570312 C 51.894531 46.953125 53.253906 46.917969 54.335938 46.289062 C 55.417969 45.660156 56.148438 44.378906 55.960938 43.136719 C 55.914062 42.839844 56.070312 42.519531 56.332031 42.375 C 56.59375 42.230469 56.941406 42.261719 57.167969 42.457031 C 57.449219 42.695312 57.511719 43.101562 57.511719 43.472656 C 57.507812 44.875 56.816406 46.25 55.730469 47.140625 C 54.644531 48.027344 53.203125 48.441406 51.808594 48.328125 C 50.414062 48.214844 49.078125 47.597656 48.035156 46.65625 C 47.785156 46.433594 47.542969 46.175781 47.441406 45.855469 C 47.339844 45.539062 47.421875 45.136719 47.707031 44.960938 Z M 47.707031 44.960938 " fill-opacity="1" fill-rule="nonzero"/></svg>