<svg xmlns="http://www.w3.org/2000/svg" xmlns:xlink="http://www.w3.org/1999/xlink" width="95" zoomAndPan="magnify" viewBox="0 0 71.25 71.25" height="95" preserveAspectRatio="xMidYMid meet" version="1.0"><defs><clipPath id="id1"><path d="M 0.0820312 1.28125 L 70.425781 1.28125 L 70.425781 69.5625 L 0.0820312 69.5625 Z M 0.0820312 1.28125 " clip-rule="nonzero"/></clipPath></defs><g clip-path="url(#id1)"><path fill="rgb(100%, 100%, 100%)" d="M 43.996094 1.566406 C 42.101562 3.402344 41.40625 6.320312 42.667969 8.699219 C 43.703125 10.648438 45.84375 11.742188 45.332031 14.269531 C 45.140625 15.207031 44.648438 16.175781 43.996094 16.878906 C 43.121094 17.820312 44.527344 19.238281 45.40625 18.296875 C 47.179688 16.386719 47.980469 13.503906 46.871094 11.066406 C 45.980469 9.117188 43.613281 7.9375 44.039062 5.507812 C 44.199219 4.574219 44.726562 3.640625 45.40625 2.984375 C 46.332031 2.085938 44.921875 0.671875 43.996094 1.566406 Z M 37.003906 1.566406 C 35.109375 3.402344 34.417969 6.320312 35.679688 8.699219 C 36.714844 10.648438 38.851562 11.742188 38.339844 14.269531 C 38.152344 15.207031 37.660156 16.175781 37.003906 16.878906 C 36.132812 17.820312 37.539062 19.238281 38.414062 18.296875 C 40.1875 16.386719 40.992188 13.503906 39.878906 11.066406 C 38.988281 9.117188 36.621094 7.9375 37.046875 5.507812 C 37.210938 4.574219 37.738281 3.640625 38.414062 2.984375 C 39.339844 2.085938 37.929688 0.671875 37.003906 1.566406 Z M 30.015625 1.566406 C 28.121094 3.402344 27.425781 6.320312 28.6875 8.699219 C 29.722656 10.648438 31.863281 11.742188 31.351562 14.269531 C 31.160156 15.207031 30.667969 16.175781 30.015625 16.878906 C 29.140625 17.820312 30.546875 19.238281 31.421875 18.296875 C 33.199219 16.386719 34 13.503906 32.886719 11.066406 C 32 9.117188 29.632812 7.9375 30.054688 5.507812 C 30.214844 4.574219 30.746094 3.640625 31.421875 2.984375 C 32.347656 2.085938 30.9375 0.671875 30.015625 1.566406 Z M 55.445312 27.441406 C 52.34375 29.632812 49.242188 31.828125 46.144531 34.019531 C 47.523438 34.257812 48.910156 34 50.207031 32.96875 C 52.792969 30.90625 58.296875 29.359375 62.0625 30.433594 C 63.527344 30.855469 64.632812 31.644531 65.304688 32.738281 C 67.332031 31.988281 67.878906 31.359375 67.878906 31.160156 C 67.878906 30.816406 66.332031 29.273438 58.773438 27.949219 C 57.722656 27.765625 56.605469 27.597656 55.445312 27.441406 Z M 67.769531 33.839844 C 67.710938 33.871094 67.648438 33.90625 67.585938 33.9375 C 67.550781 33.957031 67.515625 33.976562 67.480469 33.996094 C 67.375 34.046875 67.265625 34.097656 67.152344 34.148438 C 67.132812 34.164062 67.105469 34.171875 67.082031 34.183594 C 66.980469 34.234375 66.875 34.277344 66.769531 34.324219 C 66.71875 34.34375 66.664062 34.363281 66.613281 34.386719 C 66.53125 34.421875 66.453125 34.457031 66.363281 34.488281 C 66.304688 34.511719 66.242188 34.539062 66.175781 34.5625 C 66.097656 34.59375 66.015625 34.625 65.929688 34.65625 C 65.863281 34.679688 65.789062 34.707031 65.714844 34.730469 C 65.632812 34.761719 65.550781 34.789062 65.460938 34.820312 C 65.386719 34.84375 65.304688 34.871094 65.226562 34.898438 C 65.136719 34.925781 65.050781 34.957031 64.957031 34.984375 C 64.875 35.011719 64.789062 35.039062 64.707031 35.0625 C 64.609375 35.09375 64.515625 35.121094 64.414062 35.148438 C 64.328125 35.175781 64.238281 35.199219 64.144531 35.226562 C 64.042969 35.253906 63.941406 35.285156 63.835938 35.3125 C 63.742188 35.335938 63.644531 35.363281 63.550781 35.390625 C 63.441406 35.421875 63.332031 35.449219 63.214844 35.476562 C 63.117188 35.5 63.019531 35.523438 62.914062 35.554688 C 62.796875 35.582031 62.675781 35.609375 62.550781 35.636719 C 62.449219 35.664062 62.347656 35.6875 62.242188 35.710938 C 62.113281 35.742188 61.980469 35.773438 61.84375 35.800781 C 61.738281 35.824219 61.632812 35.847656 61.523438 35.871094 C 61.382812 35.898438 61.234375 35.933594 61.085938 35.960938 C 60.980469 35.984375 60.871094 36.007812 60.761719 36.03125 C 60.597656 36.0625 60.425781 36.09375 60.25 36.128906 C 60.152344 36.148438 60.058594 36.164062 59.960938 36.183594 C 59.6875 36.234375 59.40625 36.289062 59.113281 36.335938 C 53.058594 37.398438 45.148438 38.011719 36.675781 38.082031 C 36.109375 38.089844 35.542969 38.089844 34.972656 38.089844 C 34.402344 38.089844 33.835938 38.089844 33.269531 38.082031 C 24.800781 38.011719 16.886719 37.398438 10.832031 36.335938 C 10.542969 36.289062 10.261719 36.234375 9.984375 36.183594 C 9.886719 36.164062 9.792969 36.148438 9.699219 36.128906 C 9.523438 36.09375 9.351562 36.0625 9.183594 36.03125 C 9.074219 36.007812 8.96875 35.984375 8.863281 35.960938 C 8.714844 35.933594 8.566406 35.898438 8.421875 35.871094 C 8.3125 35.847656 8.210938 35.824219 8.105469 35.800781 C 7.96875 35.773438 7.835938 35.742188 7.707031 35.710938 C 7.601562 35.6875 7.496094 35.664062 7.394531 35.636719 C 7.273438 35.609375 7.152344 35.582031 7.03125 35.554688 C 6.929688 35.523438 6.832031 35.5 6.730469 35.476562 C 6.617188 35.449219 6.507812 35.421875 6.398438 35.390625 C 6.300781 35.363281 6.207031 35.335938 6.109375 35.3125 C 6.007812 35.285156 5.902344 35.253906 5.800781 35.226562 C 5.710938 35.199219 5.621094 35.175781 5.53125 35.148438 C 5.433594 35.121094 5.335938 35.09375 5.242188 35.0625 C 5.15625 35.039062 5.070312 35.011719 4.988281 34.984375 C 4.898438 34.957031 4.808594 34.925781 4.722656 34.898438 C 4.640625 34.871094 4.5625 34.84375 4.484375 34.820312 C 4.398438 34.789062 4.316406 34.761719 4.230469 34.734375 C 4.160156 34.707031 4.085938 34.679688 4.015625 34.65625 C 3.933594 34.625 3.851562 34.59375 3.773438 34.5625 C 3.710938 34.539062 3.644531 34.511719 3.582031 34.488281 C 3.5 34.457031 3.417969 34.421875 3.339844 34.390625 C 3.285156 34.367188 3.230469 34.34375 3.179688 34.324219 C 3.074219 34.28125 2.976562 34.234375 2.882812 34.191406 C 2.847656 34.175781 2.8125 34.160156 2.777344 34.144531 C 2.671875 34.09375 2.566406 34.046875 2.46875 33.996094 C 2.429688 33.976562 2.394531 33.957031 2.355469 33.933594 C 2.296875 33.902344 2.234375 33.871094 2.175781 33.839844 C 3.539062 50.828125 17.730469 64.230469 34.972656 64.230469 C 52.21875 64.230469 66.40625 50.828125 67.769531 33.839844 Z M 43.996094 65.039062 C 41.121094 65.8125 38.09375 66.230469 34.972656 66.230469 C 31.851562 66.230469 28.828125 65.8125 25.949219 65.039062 L 25.949219 67.570312 L 43.996094 67.570312 Z M 2.070312 31.160156 C 2.070312 31.417969 2.972656 32.378906 6.742188 33.40625 C 7.136719 32.25 7.941406 30.558594 9.46875 29.625 C 10.59375 28.9375 11.886719 28.777344 13.316406 29.15625 C 15.085938 29.625 16.296875 30.363281 17.269531 30.960938 C 18.953125 31.996094 19.882812 32.566406 22.664062 31.414062 C 23.433594 31.09375 24.226562 30.730469 25.070312 30.347656 C 29.703125 28.234375 35.46875 25.605469 39.511719 29.789062 C 40.769531 31.085938 42.261719 32.378906 43.84375 33.203125 C 43.921875 33.152344 43.996094 33.097656 44.070312 33.046875 C 44.660156 32.277344 45.253906 31.511719 45.84375 30.746094 C 46.867188 29.414062 47.894531 28.085938 48.921875 26.753906 C 44.597656 26.410156 39.867188 26.226562 34.972656 26.226562 C 25.976562 26.226562 17.523438 26.839844 11.175781 27.949219 C 3.617188 29.273438 2.070312 30.816406 2.070312 31.160156 Z M 27.945312 35.1875 C 27.453125 35.460938 26.964844 35.699219 26.488281 35.898438 C 29.222656 36.023438 32.070312 36.089844 34.972656 36.089844 C 36.363281 36.089844 37.738281 36.074219 39.097656 36.046875 C 37.058594 34.339844 33.148438 32.28125 27.945312 35.1875 Z M 45.054688 35.824219 C 44.757812 35.742188 44.457031 35.636719 44.148438 35.523438 C 44.042969 35.503906 43.9375 35.460938 43.839844 35.402344 C 41.988281 34.625 40.050781 33.214844 38.085938 31.183594 C 35.019531 28.007812 30.378906 30.125 25.894531 32.171875 C 25.03125 32.5625 24.222656 32.933594 23.425781 33.261719 C 19.707031 34.800781 18.019531 33.769531 16.230469 32.671875 C 15.28125 32.085938 14.296875 31.484375 12.808594 31.089844 C 11.914062 30.851562 11.160156 30.933594 10.503906 31.332031 C 9.5625 31.910156 8.996094 33.050781 8.691406 33.878906 C 9.089844 33.96875 9.507812 34.054688 9.953125 34.144531 C 10.074219 33.941406 10.234375 33.753906 10.441406 33.585938 C 11.34375 32.867188 12.75 32.8125 14.75 33.417969 C 15.058594 33.511719 15.363281 33.609375 15.671875 33.703125 C 19.25 34.816406 22.632812 35.867188 26.980469 33.4375 C 33.550781 29.769531 38.429688 32.738281 40.75 34.835938 C 41.195312 35.234375 41.742188 35.609375 42.371094 35.945312 C 43.277344 35.910156 44.175781 35.871094 45.054688 35.824219 Z M 63.296875 33.378906 C 62.878906 32.921875 62.28125 32.578125 61.515625 32.359375 C 58.472656 31.488281 53.601562 32.816406 51.445312 34.53125 C 50.960938 34.921875 50.453125 35.234375 49.933594 35.476562 C 51.414062 35.351562 52.84375 35.203125 54.210938 35.035156 C 55.992188 33.496094 58.773438 31.28125 61.324219 33.863281 C 62.058594 33.703125 62.714844 33.539062 63.296875 33.378906 Z M 51.261719 26.960938 C 50.699219 27.691406 50.132812 28.425781 49.570312 29.15625 C 50.546875 28.464844 51.523438 27.773438 52.496094 27.085938 C 52.089844 27.042969 51.679688 27 51.261719 26.960938 Z M 69.984375 17.15625 C 68.945312 17.890625 67.910156 18.625 66.875 19.355469 C 63.855469 21.492188 60.835938 23.628906 57.816406 25.765625 C 58.257812 25.832031 58.691406 25.90625 59.113281 25.980469 C 68.753906 27.664062 69.867188 29.742188 69.867188 31.160156 C 69.867188 46.632812 59.847656 59.792969 45.988281 64.4375 L 45.988281 69.570312 L 23.957031 69.570312 L 23.957031 64.4375 C 10.101562 59.792969 0.0820312 46.632812 0.0820312 31.160156 C 0.0820312 29.742188 1.195312 27.664062 10.832031 25.980469 C 17.292969 24.847656 25.863281 24.226562 34.972656 24.226562 C 40.414062 24.226562 45.652344 24.449219 50.371094 24.871094 C 54.394531 19.652344 58.414062 14.4375 62.433594 9.222656 C 63.21875 8.207031 64.617188 9.632812 63.839844 10.640625 C 63.0625 11.644531 62.289062 12.652344 61.511719 13.664062 L 52.699219 25.09375 C 53.464844 25.175781 54.210938 25.265625 54.941406 25.355469 C 59.621094 22.046875 64.296875 18.738281 68.980469 15.429688 C 70.03125 14.683594 71.023438 16.421875 69.984375 17.15625 Z M 42.402344 61.988281 C 44.410156 61.421875 46.34375 60.671875 48.214844 59.75 C 49.367188 59.183594 48.359375 57.457031 47.207031 58.023438 C 45.488281 58.867188 43.714844 59.539062 41.875 60.058594 C 40.640625 60.40625 41.164062 62.339844 42.402344 61.988281 Z M 53.121094 56.6875 C 52.105469 57.472656 51.113281 55.734375 52.117188 54.957031 C 56.710938 51.402344 60.195312 46.5625 62.136719 41.074219 C 62.5625 39.867188 64.488281 40.390625 64.058594 41.605469 C 61.925781 47.632812 58.160156 52.789062 53.121094 56.6875 " fill-opacity="1" fill-rule="nonzero"/></g></svg>